<?xml version="1.0" encoding="utf-8"?>
<!-- Generator: Adobe Illustrator 16.0.0, SVG Export Plug-In . SVG Version: 6.00 Build 0)  -->
<svg version="1.2" baseProfile="tiny" id="Layer_1" xmlns:sketch="http://www.bohemiancoding.com/sketch/ns"
	 xmlns="http://www.w3.org/2000/svg" xmlns:xlink="http://www.w3.org/1999/xlink" x="0px" y="0px" 
	 viewBox="0 0 3000 3000" xml:space="preserve">
<title>react-logo</title>
<desc>Created with Sketch.</desc>
<g id="Page-1" sketch:type="MSPage">
	<g id="logo-_x28_1_x29_" transform="translate(12.000000, 17.000000)" sketch:type="MSLayerGroup">
	<!-- <circle r="50.167" cy="237.628" cx="269.529" fill="#00d8ff"/><g stroke="#00d8ff" stroke-width="24"><path d="M269.53 135.628c67.356 0 129.928 9.665 177.107 25.907 56.844 19.57 91.794 49.233 91.794 76.093 0 27.99-37.04 59.503-98.083 79.728-46.15 15.29-106.88 23.272-170.818 23.272-65.554 0-127.63-7.492-174.3-23.44-59.046-20.182-94.61-52.103-94.61-79.56 0-26.642 33.37-56.076 89.415-75.616 47.355-16.51 111.472-26.384 179.486-26.384z"/><path d="M180.736 186.922c33.65-58.348 73.28-107.724 110.92-140.48C337.006 6.976 380.163-8.48 403.43 4.937c24.248 13.983 33.042 61.814 20.067 124.796-9.8 47.618-33.234 104.212-65.176 159.6-32.75 56.788-70.25 106.82-107.377 139.272-46.98 41.068-92.4 55.93-116.185 42.213-23.08-13.3-31.906-56.92-20.834-115.233 9.355-49.27 32.832-109.745 66.8-168.664z"/><path d="M180.82 289.482C147.075 231.2 124.1 172.195 114.51 123.227c-11.544-59-3.382-104.11 19.864-117.566 24.224-14.024 70.055 2.244 118.14 44.94 36.356 32.28 73.688 80.837 105.723 136.173 32.844 56.733 57.46 114.21 67.036 162.582 12.117 61.213 2.31 107.984-21.453 121.74-23.057 13.348-65.25-.784-110.24-39.5-38.013-32.71-78.682-83.253-112.76-142.115z"/></g></g><path d="M64.62 38.848l-4.26-6.436c2.153-.19 4.093-1.75 4.093-4.6 0-2.9-2.058-4.756-4.945-4.756h-6.34v15.78h1.964v-6.27h3.147l4.022 6.27zm-5.347-7.997h-4.14v-6.033h4.14c1.87 0 3.147 1.23 3.147 3.005s-1.278 3.03-3.147 3.03zm12.658 8.28c1.87 0 3.407-.615 4.543-1.75l-.852-1.16c-.9.923-2.224 1.443-3.525 1.443-2.46 0-3.975-1.798-4.117-3.95h9.25v-.45c0-3.43-2.035-6.128-5.49-6.128-3.265 0-5.63 2.674-5.63 5.986 0 3.573 2.437 6 5.82 6zm3.55-6.72h-7.5c.095-1.75 1.3-3.81 3.738-3.81 2.603 0 3.738 2.106 3.762 3.81zm13.534 6.436v-7.855c0-2.768-2.01-3.857-4.424-3.857-1.87 0-3.336.615-4.566 1.893l.828 1.23c1.017-1.088 2.13-1.585 3.502-1.585 1.656 0 2.887.875 2.887 2.413v2.058c-.923-1.065-2.224-1.562-3.786-1.562-1.94 0-4 1.207-4 3.762 0 2.484 2.058 3.786 4 3.786 1.538 0 2.84-.544 3.786-1.585v1.3zm-4.92-.994c-1.656 0-2.816-1.04-2.816-2.484 0-1.467 1.16-2.508 2.816-2.508 1.254 0 2.46.473 3.147 1.42v2.153c-.686.946-1.893 1.42-3.147 1.42zm13.5 1.278c2.082 0 3.312-.852 4.188-1.987l-1.183-1.088c-.757 1.017-1.727 1.49-2.9 1.49-2.437 0-3.95-1.893-3.95-4.424s1.514-4.4 3.95-4.4c1.183 0 2.153.45 2.9 1.49l1.183-1.088c-.875-1.136-2.106-1.987-4.188-1.987-3.407 0-5.702 2.603-5.702 5.986 0 3.407 2.295 6 5.702 6zm9.56 0c1.04 0 1.68-.308 2.13-.733l-.52-1.325c-.237.26-.7.473-1.207.473-.78 0-1.16-.615-1.16-1.467v-7.098h2.32V27.42h-2.32v-3.123h-1.775v3.123h-1.893v1.562h1.893v7.477c0 1.704.852 2.674 2.532 2.674z" fill="#00d8ff"/> -->
		<circle id="Oval" sketch:type="MSShapeGroup" fill="#00D8FF" cx="510.641" cy="1482.125" r="93.132">
		</circle>
		<path id="Shape" sketch:type="MSShapeGroup" fill="none" stroke="#00D8FF" stroke-width="34" d="M510.641,1292.769
			c125.042,0,241.203,17.942,328.787,48.095c105.527,36.328,170.41,91.397,170.41,141.262c0,51.963-68.764,110.463-182.085,148.01
			c-85.676,28.387-198.414,43.203-317.112,43.203c-121.697,0-236.937-13.908-323.559-43.517
			c-109.615-37.467-175.639-96.727-175.639-147.696c0-49.459,61.949-104.102,165.993-140.377
			C265.348,1311.101,384.377,1292.769,510.641,1292.769L510.641,1292.769z"/>
		<path id="Shape_1_" sketch:type="MSShapeGroup" fill="none" stroke="#00D8FF" stroke-width="34" d="M345.802,1387.992
			c62.468-108.319,136.042-199.982,205.916-260.792c84.189-73.266,164.308-101.961,207.503-77.052
			c45.015,25.959,61.341,114.754,37.253,231.676c-18.211,88.4-61.696,193.463-120.995,296.289
			c-60.796,105.424-130.414,198.303-199.338,258.55c-87.218,76.24-171.535,103.829-215.69,78.366
			c-42.844-24.71-59.231-105.671-38.677-213.923C239.141,1609.64,282.724,1497.372,345.802,1387.992L345.802,1387.992z"/>
		<path id="Shape_2_" sketch:type="MSShapeGroup" fill="none" stroke="#00D8FF" stroke-width="34" d="M345.96,1578.389
			c-62.647-108.216-105.317-217.736-123.104-308.642c-21.431-109.528-6.279-193.272,36.876-218.254
			c44.97-26.035,130.053,4.166,219.32,83.428c67.492,59.926,136.797,150.069,196.268,252.797
			c60.973,105.321,106.673,212.021,124.448,301.823c22.494,113.638,4.286,200.465-39.826,226.002
			c-42.804,24.78-121.131-1.455-204.652-73.327C484.721,1781.49,409.222,1687.662,345.96,1578.389L345.96,1578.389z"/>
	</g>
	<path id="React" sketch:type="MSShapeGroup" fill="#00D8FF" d="M1662.55,1676.177l-126.98-191.881
		c64.195-5.644,122.042-52.203,122.042-136.856c0-86.771-61.373-141.795-147.438-141.795h-189.06v470.532h58.552v-186.943h93.824
		l119.926,186.943H1662.55z M1503.119,1437.736h-123.453v-179.889h123.453c55.73,0,93.824,36.684,93.824,89.592
		S1558.85,1437.736,1503.119,1437.736L1503.119,1437.736z M1880.532,1684.643c55.73,0,101.584-18.342,135.445-52.203l-25.396-34.567
		c-26.808,27.513-66.313,43.032-105.111,43.032c-73.367,0-118.516-53.613-122.748-117.81h275.829v-13.403
		c0-102.289-60.668-182.71-163.663-182.71c-97.352,0-167.896,79.715-167.896,178.478
		C1706.992,1611.981,1779.653,1684.643,1880.532,1684.643L1880.532,1684.643z M1986.349,1484.296h-223.626
		c2.822-52.203,38.8-113.577,111.461-113.577C1951.782,1370.719,1985.644,1433.504,1986.349,1484.296L1986.349,1484.296z
		 M2389.863,1676.177v-234.208c0-82.537-59.962-114.987-131.918-114.987c-55.73,0-99.468,18.342-136.15,56.436l24.69,36.683
		c30.334-32.45,63.489-47.265,104.405-47.265c49.382,0,86.064,26.102,86.064,71.956v61.373
		c-27.512-31.745-66.312-46.559-112.871-46.559c-57.847,0-119.221,35.978-119.221,112.165c0,74.072,61.374,112.872,119.221,112.872
		c45.854,0,84.653-16.226,112.871-47.266v38.8H2389.863z M2243.131,1646.548c-49.381,0-83.947-31.039-83.947-74.071
		c0-43.738,34.566-74.777,83.947-74.777c37.389,0,73.367,14.108,93.824,42.326v64.196
		C2316.498,1632.439,2280.52,1646.548,2243.131,1646.548L2243.131,1646.548z M2645.94,1684.643
		c62.079,0,98.763-25.396,124.864-59.258l-35.272-32.45c-22.574,30.334-51.497,44.442-86.77,44.442
		c-72.661,0-117.81-56.436-117.81-131.918s45.148-131.213,117.81-131.213c35.272,0,64.195,13.403,86.77,44.443l35.272-32.451
		c-26.102-33.861-62.785-59.257-124.864-59.257c-101.584,0-170.013,77.599-170.013,178.478
		C2475.928,1607.043,2544.356,1684.643,2645.94,1684.643L2645.94,1684.643z M2930.941,1684.643c31.039,0,50.086-9.171,63.489-21.869
		l-15.52-39.505c-7.055,7.76-21.163,14.108-35.978,14.108c-23.28,0-34.567-18.341-34.567-43.737v-211.634h69.134v-46.56h-69.134
		v-93.118h-52.908v93.118h-56.436v46.56h56.436v222.921C2855.458,1655.719,2880.854,1684.643,2930.941,1684.643L2930.941,1684.643z"
		/>
</g>
</svg>
